<svg width="96" height="96" viewBox="0 0 96 96" fill="none" xmlns="http://www.w3.org/2000/svg">
<circle opacity="0.14" cx="48" cy="48" r="48" fill="#296AFF"/>
<g style="mix-blend-mode:multiply" filter="url(#filter0_f_4924_17771)">
<ellipse cx="47.6001" cy="50.9104" rx="22.7493" ry="21.3621" fill="#CADAFF"/>
</g>
<g filter="url(#filter1_ii_4924_17771)">
<path d="M56.478 55.59C45.7525 55.59 37.0579 48.5184 37.0579 39.795C37.0579 31.0717 45.7525 24 56.478 24C67.2034 24 75.8981 31.0717 75.8981 39.795C75.8981 46.1962 71.2163 51.7081 64.4858 54.1889C63.9742 54.3775 63.6775 54.9289 63.886 55.4328C64.0789 55.8993 64.3138 56.3696 64.5864 56.8223C65.0711 57.6275 64.5375 58.6949 63.6547 58.3727C61.8709 57.7216 60.0419 56.6495 59.0571 55.8113C58.8267 55.6151 58.5324 55.5046 58.2306 55.5266C57.6533 55.5686 57.0687 55.59 56.478 55.59Z" fill="url(#paint0_linear_4924_17771)"/>
</g>
<path d="M56.478 55.59C45.7525 55.59 37.0579 48.5184 37.0579 39.795C37.0579 31.0717 45.7525 24 56.478 24C67.2034 24 75.8981 31.0717 75.8981 39.795C75.8981 46.1962 71.2163 51.7081 64.4858 54.1889C63.9742 54.3775 63.6775 54.9289 63.886 55.4328C64.0789 55.8993 64.3138 56.3696 64.5864 56.8223C65.0711 57.6275 64.5375 58.6949 63.6547 58.3727C61.8709 57.7216 60.0419 56.6495 59.0571 55.8113C58.8267 55.6151 58.5324 55.5046 58.2306 55.5266C57.6533 55.5686 57.0687 55.59 56.478 55.59Z" stroke="white" stroke-opacity="0.2"/>
<path d="M41.4459 65.131C53.2902 65.131 62.8918 57.3823 62.8918 47.8238C62.8918 38.2653 53.2902 30.5166 41.4459 30.5166C29.6017 30.5166 20 38.2653 20 47.8238C20 54.8871 25.243 60.9622 32.7597 63.6526C33.2712 63.8357 33.5702 64.3825 33.3692 64.8873C33.1192 65.5152 32.7956 66.1547 32.4075 66.7605C31.8975 67.5564 32.4241 68.6456 33.319 68.3411C35.4454 67.6176 37.6728 66.3296 38.7493 65.3783C38.9856 65.1695 39.2905 65.0466 39.605 65.0682C40.2118 65.1098 40.8258 65.131 41.4459 65.131Z" fill="#296AFF" fill-opacity="0.28"/>
<g filter="url(#filter2_bdii_4924_17771)">
<path d="M41.4459 65.131C53.2902 65.131 62.8918 57.3823 62.8918 47.8238C62.8918 38.2653 53.2902 30.5166 41.4459 30.5166C29.6017 30.5166 20 38.2653 20 47.8238C20 54.8871 25.243 60.9622 32.7597 63.6526C33.2712 63.8357 33.5702 64.3825 33.3692 64.8873C33.1192 65.5152 32.7956 66.1547 32.4075 66.7605C31.8975 67.5564 32.4241 68.6456 33.319 68.3411C35.4454 67.6176 37.6728 66.3296 38.7493 65.3783C38.9856 65.1695 39.2905 65.0466 39.605 65.0682C40.2118 65.1098 40.8258 65.131 41.4459 65.131Z" fill="url(#paint1_linear_4924_17771)" shape-rendering="crispEdges"/>
<path d="M41.4459 65.131C53.2902 65.131 62.8918 57.3823 62.8918 47.8238C62.8918 38.2653 53.2902 30.5166 41.4459 30.5166C29.6017 30.5166 20 38.2653 20 47.8238C20 54.8871 25.243 60.9622 32.7597 63.6526C33.2712 63.8357 33.5702 64.3825 33.3692 64.8873C33.1192 65.5152 32.7956 66.1547 32.4075 66.7605C31.8975 67.5564 32.4241 68.6456 33.319 68.3411C35.4454 67.6176 37.6728 66.3296 38.7493 65.3783C38.9856 65.1695 39.2905 65.0466 39.605 65.0682C40.2118 65.1098 40.8258 65.131 41.4459 65.131Z" stroke="white" stroke-opacity="0.2" shape-rendering="crispEdges"/>
</g>
<g filter="url(#filter3_dd_4924_17771)">
<circle cx="32.9176" cy="48.2001" r="2.63371" fill="#F9F4F8"/>
</g>
<g filter="url(#filter4_dd_4924_17771)">
<circle cx="41.446" cy="48.2001" r="2.63371" fill="#F9F4F8"/>
</g>
<g filter="url(#filter5_dd_4924_17771)">
<circle cx="49.974" cy="48.2001" r="2.63371" fill="#F9F4F8"/>
</g>
<defs>
<filter id="filter0_f_4924_17771" x="4.85083" y="9.54834" width="85.4985" height="82.7241" filterUnits="userSpaceOnUse" color-interpolation-filters="sRGB">
<feFlood flood-opacity="0" result="BackgroundImageFix"/>
<feBlend mode="normal" in="SourceGraphic" in2="BackgroundImageFix" result="shape"/>
<feGaussianBlur stdDeviation="10" result="effect1_foregroundBlur_4924_17771"/>
</filter>
<filter id="filter1_ii_4924_17771" x="34.5579" y="21.5" width="43.8401" height="39.4316" filterUnits="userSpaceOnUse" color-interpolation-filters="sRGB">
<feFlood flood-opacity="0" result="BackgroundImageFix"/>
<feBlend mode="normal" in="SourceGraphic" in2="BackgroundImageFix" result="shape"/>
<feColorMatrix in="SourceAlpha" type="matrix" values="0 0 0 0 0 0 0 0 0 0 0 0 0 0 0 0 0 0 127 0" result="hardAlpha"/>
<feOffset dx="2" dy="2"/>
<feGaussianBlur stdDeviation="1.5"/>
<feComposite in2="hardAlpha" operator="arithmetic" k2="-1" k3="1"/>
<feColorMatrix type="matrix" values="0 0 0 0 1 0 0 0 0 1 0 0 0 0 1 0 0 0 1 0"/>
<feBlend mode="overlay" in2="shape" result="effect1_innerShadow_4924_17771"/>
<feColorMatrix in="SourceAlpha" type="matrix" values="0 0 0 0 0 0 0 0 0 0 0 0 0 0 0 0 0 0 127 0" result="hardAlpha"/>
<feOffset dx="-2" dy="-2"/>
<feGaussianBlur stdDeviation="2"/>
<feComposite in2="hardAlpha" operator="arithmetic" k2="-1" k3="1"/>
<feColorMatrix type="matrix" values="0 0 0 0 0.160784 0 0 0 0 0.415686 0 0 0 0 1 0 0 0 0.2 0"/>
<feBlend mode="multiply" in2="effect1_innerShadow_4924_17771" result="effect2_innerShadow_4924_17771"/>
</filter>
<filter id="filter2_bdii_4924_17771" x="-0.5" y="10.0166" width="83.8918" height="78.877" filterUnits="userSpaceOnUse" color-interpolation-filters="sRGB">
<feFlood flood-opacity="0" result="BackgroundImageFix"/>
<feGaussianBlur in="BackgroundImageFix" stdDeviation="10"/>
<feComposite in2="SourceAlpha" operator="in" result="effect1_backgroundBlur_4924_17771"/>
<feColorMatrix in="SourceAlpha" type="matrix" values="0 0 0 0 0 0 0 0 0 0 0 0 0 0 0 0 0 0 127 0" result="hardAlpha"/>
<feOffset dx="5" dy="-3"/>
<feGaussianBlur stdDeviation="6"/>
<feComposite in2="hardAlpha" operator="out"/>
<feColorMatrix type="matrix" values="0 0 0 0 0.160784 0 0 0 0 0.415686 0 0 0 0 1 0 0 0 0.8 0"/>
<feBlend mode="overlay" in2="effect1_backgroundBlur_4924_17771" result="effect2_dropShadow_4924_17771"/>
<feBlend mode="normal" in="SourceGraphic" in2="effect2_dropShadow_4924_17771" result="shape"/>
<feColorMatrix in="SourceAlpha" type="matrix" values="0 0 0 0 0 0 0 0 0 0 0 0 0 0 0 0 0 0 127 0" result="hardAlpha"/>
<feOffset dx="2" dy="2"/>
<feGaussianBlur stdDeviation="1.5"/>
<feComposite in2="hardAlpha" operator="arithmetic" k2="-1" k3="1"/>
<feColorMatrix type="matrix" values="0 0 0 0 1 0 0 0 0 1 0 0 0 0 1 0 0 0 1 0"/>
<feBlend mode="overlay" in2="shape" result="effect3_innerShadow_4924_17771"/>
<feColorMatrix in="SourceAlpha" type="matrix" values="0 0 0 0 0 0 0 0 0 0 0 0 0 0 0 0 0 0 127 0" result="hardAlpha"/>
<feOffset dx="-2" dy="-2"/>
<feGaussianBlur stdDeviation="2"/>
<feComposite in2="hardAlpha" operator="arithmetic" k2="-1" k3="1"/>
<feColorMatrix type="matrix" values="0 0 0 0 0.160784 0 0 0 0 0.415686 0 0 0 0 1 0 0 0 0.1 0"/>
<feBlend mode="multiply" in2="effect3_innerShadow_4924_17771" result="effect4_innerShadow_4924_17771"/>
</filter>
<filter id="filter3_dd_4924_17771" x="26.2839" y="41.5664" width="15.2673" height="15.2676" filterUnits="userSpaceOnUse" color-interpolation-filters="sRGB">
<feFlood flood-opacity="0" result="BackgroundImageFix"/>
<feColorMatrix in="SourceAlpha" type="matrix" values="0 0 0 0 0 0 0 0 0 0 0 0 0 0 0 0 0 0 127 0" result="hardAlpha"/>
<feOffset dx="2" dy="2"/>
<feGaussianBlur stdDeviation="2"/>
<feComposite in2="hardAlpha" operator="out"/>
<feColorMatrix type="matrix" values="0 0 0 0 0.160784 0 0 0 0 0.415686 0 0 0 0 1 0 0 0 0.3 0"/>
<feBlend mode="multiply" in2="BackgroundImageFix" result="effect1_dropShadow_4924_17771"/>
<feColorMatrix in="SourceAlpha" type="matrix" values="0 0 0 0 0 0 0 0 0 0 0 0 0 0 0 0 0 0 127 0" result="hardAlpha"/>
<feOffset dx="1" dy="1"/>
<feGaussianBlur stdDeviation="2.5"/>
<feComposite in2="hardAlpha" operator="out"/>
<feColorMatrix type="matrix" values="0 0 0 0 0.160784 0 0 0 0 0.415686 0 0 0 0 1 0 0 0 0.2 0"/>
<feBlend mode="multiply" in2="effect1_dropShadow_4924_17771" result="effect2_dropShadow_4924_17771"/>
<feBlend mode="normal" in="SourceGraphic" in2="effect2_dropShadow_4924_17771" result="shape"/>
</filter>
<filter id="filter4_dd_4924_17771" x="34.8123" y="41.5664" width="15.2673" height="15.2676" filterUnits="userSpaceOnUse" color-interpolation-filters="sRGB">
<feFlood flood-opacity="0" result="BackgroundImageFix"/>
<feColorMatrix in="SourceAlpha" type="matrix" values="0 0 0 0 0 0 0 0 0 0 0 0 0 0 0 0 0 0 127 0" result="hardAlpha"/>
<feOffset dx="2" dy="2"/>
<feGaussianBlur stdDeviation="2"/>
<feComposite in2="hardAlpha" operator="out"/>
<feColorMatrix type="matrix" values="0 0 0 0 0.160784 0 0 0 0 0.415686 0 0 0 0 1 0 0 0 0.3 0"/>
<feBlend mode="multiply" in2="BackgroundImageFix" result="effect1_dropShadow_4924_17771"/>
<feColorMatrix in="SourceAlpha" type="matrix" values="0 0 0 0 0 0 0 0 0 0 0 0 0 0 0 0 0 0 127 0" result="hardAlpha"/>
<feOffset dx="1" dy="1"/>
<feGaussianBlur stdDeviation="2.5"/>
<feComposite in2="hardAlpha" operator="out"/>
<feColorMatrix type="matrix" values="0 0 0 0 0.160784 0 0 0 0 0.415686 0 0 0 0 1 0 0 0 0.2 0"/>
<feBlend mode="multiply" in2="effect1_dropShadow_4924_17771" result="effect2_dropShadow_4924_17771"/>
<feBlend mode="normal" in="SourceGraphic" in2="effect2_dropShadow_4924_17771" result="shape"/>
</filter>
<filter id="filter5_dd_4924_17771" x="43.3403" y="41.5664" width="15.2673" height="15.2676" filterUnits="userSpaceOnUse" color-interpolation-filters="sRGB">
<feFlood flood-opacity="0" result="BackgroundImageFix"/>
<feColorMatrix in="SourceAlpha" type="matrix" values="0 0 0 0 0 0 0 0 0 0 0 0 0 0 0 0 0 0 127 0" result="hardAlpha"/>
<feOffset dx="2" dy="2"/>
<feGaussianBlur stdDeviation="2"/>
<feComposite in2="hardAlpha" operator="out"/>
<feColorMatrix type="matrix" values="0 0 0 0 0.160784 0 0 0 0 0.415686 0 0 0 0 1 0 0 0 0.3 0"/>
<feBlend mode="multiply" in2="BackgroundImageFix" result="effect1_dropShadow_4924_17771"/>
<feColorMatrix in="SourceAlpha" type="matrix" values="0 0 0 0 0 0 0 0 0 0 0 0 0 0 0 0 0 0 127 0" result="hardAlpha"/>
<feOffset dx="1" dy="1"/>
<feGaussianBlur stdDeviation="2.5"/>
<feComposite in2="hardAlpha" operator="out"/>
<feColorMatrix type="matrix" values="0 0 0 0 0.160784 0 0 0 0 0.415686 0 0 0 0 1 0 0 0 0.2 0"/>
<feBlend mode="multiply" in2="effect1_dropShadow_4924_17771" result="effect2_dropShadow_4924_17771"/>
<feBlend mode="normal" in="SourceGraphic" in2="effect2_dropShadow_4924_17771" result="shape"/>
</filter>
<linearGradient id="paint0_linear_4924_17771" x1="46.5" y1="29.5" x2="84" y2="71.5" gradientUnits="userSpaceOnUse">
<stop offset="0.166813" stop-color="#296AFF"/>
<stop offset="1" stop-color="#0F2E74"/>
</linearGradient>
<linearGradient id="paint1_linear_4924_17771" x1="23.0517" y1="30.658" x2="69.9374" y2="64.7819" gradientUnits="userSpaceOnUse">
<stop stop-color="white"/>
<stop offset="1" stop-color="#296AFF"/>
</linearGradient>
</defs>
</svg>
